<svg class="svg-icon" style="width: 1em;height: 1em;vertical-align: middle;fill: currentColor;overflow: hidden;" viewBox="0 0 1024 1024" version="1.1" xmlns="http://www.w3.org/2000/svg"><path d="M691.2 524.8c0-37.888 20.48-70.912 51.2-88.576V409.6H307.2v26.624c30.72 17.664 51.2 50.688 51.2 88.576s-20.48 70.912-51.2 88.576V640h435.2v-26.624c-30.72-17.664-51.2-50.688-51.2-88.576z m102.4-166.4v115.2c-28.16 0-51.2 23.04-51.2 51.2s23.04 51.2 51.2 51.2V691.2H256v-115.2c28.16 0 51.2-23.04 51.2-51.2s-23.04-51.2-51.2-51.2V358.4h537.6z m-358.4 51.2h-51.2v230.4h51.2v-230.4z m230.4 0h-51.2v230.4h51.2v-230.4z"  /></svg>